# xmcd CD database file
#
# Track frame offsets:
#	150
#	14331
#	28686
#	41174
#	53515
#	66726
#	80745
#	94521
#	109156
#	123148
#
# Disc length: 1752 seconds
#
# Revision: 0
# Processed by: cddbd v1.5.2PL0 Copyright (c) Steve Scherf et al.
# Submitted via: CDex 1.51
#
DISCID=8106d60a
DTITLE=Ernest Tubb and Friends - Rainbow At Midnight
DYEAR=1900
DGENRE=Country
TTITLE0=Ernest Tubb =Give Me An Old Fashioned Love
TTITLE1=Ernest Tubb With Vern Gosdin =When The World Has Turned You Down
TTITLE2=Ernest Tubb With Willie Nelson =You Nearly Lose Your Mind
TTITLE3=Ernest Tubb With Marty Robbins, Wilburn Bros =Journey's End
TTITLE4=Ernest Tubb With Justin Tubb =Blue Eyed Elaine
TTITLE5=Ernest Tubb With George Jones =Filipino Baby
TTITLE6=Ernest Tubb With Merle Haggard =Seaman's Blues
TTITLE7=Ernest Tubb With Marty Robbins =Rainbow At Midnight
TTITLE8=Ernest Tubb With B.J.Thomas =Tomorrow Never Comes
TTITLE9=Ernest Tubb =I Ain't  Been Right Since You Went Wrong
EXTD=
EXTT0=
EXTT1=
EXTT2=
EXTT3=
EXTT4=
EXTT5=
EXTT6=
EXTT7=
EXTT8=
EXTT9=
PLAYORDER=
